<svg height="1355.89" viewBox="0 0 1000 1355.89" width="1000" xmlns="http://www.w3.org/2000/svg"><g stroke-width="3.655"><path d="m322.06087 1048.5843s-51.81435 30.1319 36.87451 40.3281c107.44406 12.2574 162.35748 10.4995 280.76156-11.9103 0 0 31.12954 19.519 74.60418 36.4251-265.43067 113.7591-600.72193-6.5892-392.24025-64.8429" fill="#0b6fb6"/><path d="m289.62665 900.13614s-58.11481 43.0178 30.63983 52.198c114.77511 11.8408 205.41551 12.8093 362.25825-17.392 0 0 21.69347 21.9931 55.80513 34.0203-320.92152 93.84166-678.37037 7.4005-448.70321-68.8263" fill="#0b6fb6"/><path d="m563.05717 648.31864c65.402 75.2985-17.18374 143.0578-17.18374 143.0578s166.06685-85.7287 89.79984-193.0814c-71.23102-100.113-125.85573-149.85525 169.86029-321.36006 0 0-464.17661 115.92994-242.47639 371.38366" fill="#e11f21"/><g fill="#0b6fb6"><path d="m914.11053 1158.3856s38.34365 31.5936-42.22843 56.0354c-153.21012 46.4128-637.67686 60.4281-772.259675 1.8491-48.379061-21.0466 42.345385-50.2538 70.883845-56.3825 29.76274-6.4539 46.77105-5.2517 46.77105-5.2517-53.80242-37.9013-347.75695 74.4215-149.314344 106.589 541.181844 87.7642 986.522924-39.5205 846.147554-102.8393"/><path d="m346.97766 746.32664s-246.43063 58.5315-87.26723 79.7863c67.2037 8.9976 201.17255 6.962 325.96115-3.4937 101.98415-8.6029 204.38858-26.8939 204.38858-26.8939s-35.96087 15.4003-61.97769 33.1652c-250.24598 65.8149-733.6748216 35.197-594.50187-32.1237 117.69875-56.8941 213.39706-50.4402 213.39706-50.4402"/><path d="m789.04419 993.42604c254.38661-132.189 136.76825-259.2216 54.67222-242.1073-20.12202 4.1881-29.09396 7.8171-29.09396 7.8171s7.46992-11.7018 21.73732-16.767c162.4123-57.0989 287.31783 168.4057-52.42832 257.71946 0 0 3.93596-3.51566 5.11274-6.66226"/></g><path d="m635.67327-.00024664s140.88328 140.93081664-133.62168 357.64252664c-220.1251 173.84006-50.19537 272.95906-.0914 386.20656-128.49063-115.9299-222.78558-217.9835-159.52515-312.96554 92.85141-139.42513 350.08125-207.02346 293.23823-430.88354664" fill="#e11f21"/><path d="m371.97485 1351.6277c244.17941 15.6305 619.14457-8.6722 628.02515-124.2112 0 0-17.07045 43.7999-201.80114 78.584-208.41224 39.2207-465.45937 34.6416-617.91664 9.5055.003 0 31.20993 25.8304 191.69263 36.1217" fill="#0b6fb6"/></g></svg>