<svg height="1355.89" width="1000" xmlns="http://www.w3.org/2000/svg"><g stroke-width="3.655"><path d="M322.06 1048.584s-51.813 30.132 36.875 40.328c107.444 12.258 162.358 10.5 280.762-11.91 0 0 31.13 19.52 74.604 36.425-265.43 113.76-600.722-6.589-392.24-64.843m-32.434-148.448s-58.115 43.018 30.64 52.198c114.775 11.84 205.415 12.81 362.258-17.392 0 0 21.693 21.993 55.805 34.02-320.922 93.842-678.37 7.4-448.703-68.826" fill="#0b6fb6"/><path d="M563.057 648.319c65.402 75.298-17.184 143.057-17.184 143.057s166.067-85.728 89.8-193.081c-71.23-100.113-125.855-149.855 169.86-321.36 0 0-464.176 115.93-242.476 371.384" fill="#e11f21"/><g fill="#0b6fb6"><path d="M914.11 1158.386s38.344 31.593-42.228 56.035c-153.21 46.413-637.677 60.428-772.26 1.85-48.379-21.048 42.346-50.255 70.884-56.383 29.763-6.454 46.771-5.252 46.771-5.252-53.802-37.901-347.757 74.421-149.314 106.589 541.182 87.764 986.523-39.52 846.148-102.84M346.978 746.328s-246.431 58.531-87.268 79.786c67.204 8.998 201.173 6.962 325.962-3.494 101.984-8.603 204.388-26.894 204.388-26.894s-35.96 15.4-61.978 33.166c-250.246 65.814-733.674 35.197-594.501-32.124 117.698-56.894 213.397-50.44 213.397-50.44m442.066 247.099c254.387-132.189 136.768-259.222 54.672-242.107-20.122 4.188-29.094 7.817-29.094 7.817s7.47-11.702 21.738-16.767c162.412-57.1 287.318 168.406-52.429 257.72 0 0 3.936-3.516 5.113-6.663"/></g><path d="M635.673 0s140.884 140.93-133.621 357.642c-220.126 173.84-50.196 272.96-.092 386.207-128.49-115.93-222.785-217.984-159.525-312.966C435.286 291.458 692.516 223.86 635.673 0" fill="#e11f21"/><path d="M371.975 1351.628c244.18 15.63 619.144-8.672 628.025-124.211 0 0-17.07 43.8-201.801 78.584-208.412 39.22-465.46 34.641-617.917 9.505.003 0 31.21 25.83 191.693 36.122" fill="#0b6fb6"/></g></svg>